# Blender 5.0.1
# www.blender.org
mtllib Box.mtl
o Cube
v 1.063121 0.626270 0.793240
v 1.063121 0.793240 0.626270
v 0.961792 0.894569 0.793240
v 0.961792 0.793240 0.894569
v 0.626270 0.793240 1.063121
v 0.793240 0.626270 1.063121
v 0.894569 0.793240 0.961792
v 0.793240 0.894569 0.961792
v 0.626270 -0.793240 -1.063121
v 0.793240 -0.626270 -1.063121
v 0.894569 -0.793240 -0.961792
v 0.793240 -0.894569 -0.961792
v 0.793240 -1.063121 -0.626270
v 0.626270 -1.063121 -0.793240
v 0.793240 -0.961792 -0.894569
v 0.894569 -0.961792 -0.793240
v 1.063121 -0.626270 -0.793240
v 1.063121 -0.793240 -0.626270
v 0.961792 -0.894569 -0.793240
v 0.961792 -0.793240 -0.894569
v 0.626270 1.063121 -0.793240
v 0.793240 1.063121 -0.626270
v 0.894569 0.961792 -0.793240
v 0.793240 0.961792 -0.894569
v 0.793240 0.626270 -1.063121
v 0.626270 0.793240 -1.063121
v 0.793240 0.894569 -0.961792
v 0.894569 0.793240 -0.961792
v 1.063121 0.793240 -0.626270
v 1.063121 0.626270 -0.793240
v 0.961792 0.793240 -0.894569
v 0.961792 0.894569 -0.793240
v 0.579173 0.746143 -1.000000
v 0.746143 0.579173 -1.000000
v 0.746143 1.000000 -0.579173
v 0.579173 1.000000 -0.746143
v 1.000000 0.579173 -0.746143
v 1.000000 0.746143 -0.579173
v 0.579173 -1.000000 -0.746143
v 0.746143 -1.000000 -0.579173
v 0.746143 -0.579173 -1.000000
v 0.579173 -0.746143 -1.000000
v 1.000000 -0.746143 -0.579173
v 1.000000 -0.579173 -0.746143
v 1.000000 0.746143 0.579173
v 1.000000 0.579173 0.746143
v 0.579173 1.000000 0.746143
v 0.746143 1.000000 0.579173
v 0.746143 0.579173 1.000000
v 0.579173 0.746143 1.000000
v 1.000000 -0.579173 0.746143
v 1.000000 -0.746143 0.579173
v 0.579173 -0.746143 1.000000
v 0.746143 -0.579173 1.000000
v 0.746143 -1.000000 0.579173
v 0.579173 -1.000000 0.746143
v -0.746143 0.579173 -1.000000
v -0.579173 0.746143 -1.000000
v -1.000000 0.746143 -0.579173
v -1.000000 0.579173 -0.746143
v -0.579173 1.000000 -0.746143
v -0.746143 1.000000 -0.579173
v -1.000000 -0.579173 -0.746143
v -1.000000 -0.746143 -0.579173
v -0.579173 -0.746143 -1.000000
v -0.746143 -0.579173 -1.000000
v -0.746143 -1.000000 -0.579173
v -0.579173 -1.000000 -0.746143
v -1.000000 0.579173 0.746143
v -1.000000 0.746143 0.579173
v -0.579173 0.746143 1.000000
v -0.746143 0.579173 1.000000
v -0.746143 1.000000 0.579173
v -0.579173 1.000000 0.746143
v -0.579173 -1.000000 0.746143
v -0.746143 -1.000000 0.579173
v -0.746143 -0.579173 1.000000
v -0.579173 -0.746143 1.000000
v -1.000000 -0.746143 0.579173
v -1.000000 -0.579173 0.746143
v 0.793240 1.063121 0.626270
v 0.626270 1.063121 0.793240
v 0.793240 0.961792 0.894569
v 0.894569 0.961792 0.793240
v 0.626270 -1.063121 0.793240
v 0.793240 -1.063121 0.626270
v 0.894569 -0.961792 0.793240
v 0.793240 -0.961792 0.894569
v 1.063121 -0.793240 0.626270
v 1.063121 -0.626270 0.793240
v 0.961792 -0.793240 0.894569
v 0.961792 -0.894569 0.793240
v 0.793240 -0.626270 1.063121
v 0.626270 -0.793240 1.063121
v 0.793240 -0.894569 0.961792
v 0.894569 -0.793240 0.961792
v -0.793240 1.063121 -0.626270
v -0.626270 1.063121 -0.793240
v -0.793240 0.961792 -0.894569
v -0.894569 0.961792 -0.793240
v -0.626270 0.793240 -1.063121
v -0.793240 0.626270 -1.063121
v -0.894569 0.793240 -0.961792
v -0.793240 0.894569 -0.961792
v -1.063121 0.626270 -0.793240
v -1.063121 0.793240 -0.626270
v -0.961792 0.894569 -0.793240
v -0.961792 0.793240 -0.894569
v -0.626270 -1.063121 -0.793240
v -0.793240 -1.063121 -0.626270
v -0.894569 -0.961792 -0.793240
v -0.793240 -0.961792 -0.894569
v -1.063121 -0.793240 -0.626270
v -1.063121 -0.626270 -0.793240
v -0.961792 -0.793240 -0.894569
v -0.961792 -0.894569 -0.793240
v -0.793240 -0.626270 -1.063121
v -0.626270 -0.793240 -1.063121
v -0.793240 -0.894569 -0.961792
v -0.894569 -0.793240 -0.961792
v -0.626270 1.063121 0.793240
v -0.793240 1.063121 0.626270
v -0.894569 0.961792 0.793240
v -0.793240 0.961792 0.894569
v -1.063121 0.793240 0.626270
v -1.063121 0.626270 0.793240
v -0.961792 0.793240 0.894569
v -0.961792 0.894569 0.793240
v -0.793240 0.626270 1.063121
v -0.626270 0.793240 1.063121
v -0.793240 0.894569 0.961792
v -0.894569 0.793240 0.961792
v -1.063121 -0.626270 0.793240
v -1.063121 -0.793240 0.626270
v -0.961792 -0.894569 0.793240
v -0.961792 -0.793240 0.894569
v -0.793240 -1.063121 0.626270
v -0.626270 -1.063121 0.793240
v -0.793240 -0.961792 0.894569
v -0.894569 -0.961792 0.793240
v -0.626270 -0.793240 1.063121
v -0.793240 -0.626270 1.063121
v -0.894569 -0.793240 0.961792
v -0.793240 -0.894569 0.961792
vn 0.8821 0.3331 0.3331
vn 0.3331 0.3331 0.8821
vn 0.3331 -0.3331 -0.8821
vn 0.3331 -0.8821 -0.3331
vn 0.8821 -0.3331 -0.3331
vn 0.3331 0.8821 -0.3331
vn 0.3331 0.3331 -0.8821
vn 0.8821 0.3331 -0.3331
vn 0.3331 0.8821 0.3331
vn 0.3331 -0.8821 0.3331
vn 0.8821 -0.3331 0.3331
vn 0.3331 -0.3331 0.8821
vn -0.3331 0.8821 -0.3331
vn -0.3331 0.3331 -0.8821
vn -0.8821 0.3331 -0.3331
vn -0.3331 -0.8821 -0.3331
vn -0.8821 -0.3331 -0.3331
vn -0.3331 -0.3331 -0.8821
vn -0.3331 0.8821 0.3331
vn -0.8821 0.3331 0.3331
vn -0.3331 0.3331 0.8821
vn -0.8821 -0.3331 0.3331
vn -0.3331 -0.8821 0.3331
vn -0.3331 -0.3331 0.8821
vn -0.0000 -0.0000 -1.0000
vn -0.7258 -0.4864 0.4864
vn -0.0000 -1.0000 -0.0000
vn 0.4864 0.7258 0.4864
vn -0.4864 0.4864 -0.7258
vn -0.0000 -0.0000 1.0000
vn 0.4864 0.4864 0.7258
vn 1.0000 -0.0000 -0.0000
vn 0.7258 0.4864 0.4864
vn -1.0000 -0.0000 -0.0000
vn -0.4864 -0.4864 0.7258
vn -0.7071 -0.7071 -0.0000
vn 0.7258 -0.4864 -0.4864
vn -0.0000 -0.7071 -0.7071
vn -0.0000 1.0000 -0.0000
vn 0.4864 -0.7258 -0.4864
vn 0.7071 -0.0000 -0.7071
vn -0.4864 -0.7258 0.4864
vn -0.0000 0.7071 -0.7071
vn -0.7258 0.4864 -0.4864
vn 0.7071 -0.0000 0.7071
vn -0.4864 0.7258 -0.4864
vn -0.7071 0.7071 -0.0000
vn 0.4864 -0.4864 -0.7258
vn 0.5774 0.5774 0.5774
vn 0.5980 -0.8015 -0.0000
vn 0.5980 -0.0000 -0.8015
vn 0.7071 0.7071 -0.0000
vn -0.0000 0.7071 0.7071
vn -0.8015 -0.0000 0.5980
vn -0.0000 -0.8015 0.5980
vn 0.5774 -0.5774 -0.5774
vn -0.8015 -0.0000 -0.5980
vn -0.0000 0.8015 -0.5980
vn 0.7071 -0.7071 -0.0000
vn -0.0000 -0.5980 0.8015
vn -0.8015 -0.5980 -0.0000
vn 0.5980 0.8015 -0.0000
vn 0.5980 -0.0000 0.8015
vn 0.5774 0.5774 -0.5774
vn -0.8015 0.5980 -0.0000
vn -0.0000 0.5980 0.8015
vn -0.0000 -0.8015 -0.5980
vn -0.0000 0.5980 -0.8015
vn -0.0000 0.8015 0.5980
vn -0.0000 -0.5980 -0.8015
vn 0.8015 -0.0000 -0.5980
vn -0.5980 -0.0000 0.8015
vn -0.5980 -0.8015 -0.0000
vn 0.8015 0.5980 -0.0000
vn -0.5980 0.8015 -0.0000
vn 0.8015 -0.5980 -0.0000
vn -0.5980 -0.0000 -0.8015
vn 0.8015 -0.0000 0.5980
vn -0.0000 -0.7071 0.7071
vn 0.5774 -0.5774 0.5774
vn -0.5774 0.5774 -0.5774
vn -0.7071 -0.0000 -0.7071
vn -0.5774 -0.5774 -0.5774
vn -0.5774 0.5774 0.5774
vn -0.7071 -0.0000 0.7071
vn -0.5774 -0.5774 0.5774
vt -0.354410 1.174564
vt -0.174564 1.354410
vt -0.354410 1.463553
vt -0.463553 1.354410
vt 1.174564 1.354410
vt 1.354410 1.174564
vt 1.463553 1.354410
vt 1.354410 1.463553
vt 1.174564 -0.354410
vt 1.354410 -0.174564
vt 1.463553 -0.354410
vt 1.354410 -0.463553
vt -0.174564 -0.354410
vt -0.354410 -0.174564
vt -0.463553 -0.354410
vt -0.354410 -0.463553
vt -0.303681 1.123835
vt -0.123835 1.303681
vt 1.303681 -0.123835
vt 1.123835 -0.303681
vt 1.123835 1.303681
vt 1.303681 1.123835
vt -0.123835 -0.303681
vt -0.303681 -0.123835
vt -0.354410 -0.645102
vt -0.303681 -0.577114
vt 1.123835 -0.577114
vt 1.174564 -0.645102
vt 1.645102 -0.174564
vt 1.577114 -0.123835
vt 1.577114 1.303681
vt 1.645102 1.354410
vt -0.174564 -0.645102
vt -0.123835 -0.577114
vt 1.303681 -0.577114
vt 1.354410 -0.645102
vt -0.645102 -0.174564
vt -0.577114 -0.123835
vt -0.577114 1.303681
vt -0.645102 1.354410
vt -0.174564 1.645102
vt -0.123835 1.577114
vt 1.303681 1.577114
vt 1.354410 1.645102
vt -0.354410 1.645102
vt -0.303681 1.577114
vt 1.123835 1.577114
vt 1.174564 1.645102
vt -0.535959 1.354410
vt -0.645102 1.174564
vt -0.535959 -0.354410
vt 1.535959 1.354410
vt 1.535959 1.463553
vt 1.463553 1.535959
vt 1.354410 1.535959
vt 1.577114 1.123835
vt 1.645102 1.174564
vt 1.535959 -0.354410
vt -0.354410 1.535959
vt -0.577114 1.123835
vt 1.354410 -0.535959
vt 1.463553 -0.535959
vt 1.535959 -0.463553
vt -0.354410 -0.535959
vt 0.334729 0.166070
vt 0.376417 0.125897
vt 0.623583 0.115385
vt 0.659210 0.151013
vt 0.659210 0.408690
vt 0.617522 0.448863
vt 0.328311 0.469886
vt 0.292683 0.434258
vt 0.740461 0.547749
vt 0.779120 0.506061
vt 1.047308 0.548107
vt 1.085966 0.589795
vt 1.085966 0.836960
vt 1.047308 0.878649
vt 0.779120 0.920695
vt 0.740461 0.879006
vt 0.327248 0.589795
vt 0.364391 0.552652
vt 0.622068 0.542141
vt 0.659210 0.579284
vt 0.659210 0.847472
vt 0.622068 0.884615
vt 0.364391 0.874103
vt 0.327248 0.836961
vt -0.085966 0.589795
vt -0.050338 0.554168
vt 0.196827 0.554168
vt 0.232455 0.589795
vt 0.232455 0.836960
vt 0.196827 0.872588
vt -0.050338 0.872588
vt -0.085966 0.836961
vt 0.292683 0.992497
vt 0.328311 0.956869
vt 0.617522 0.977893
vt 0.659210 1.016551
vt 0.659210 1.263716
vt 0.623583 1.299344
vt 0.376417 1.299344
vt 0.334729 1.260686
vt 0.340790 -0.263716
vt 0.376417 -0.299344
vt 0.623583 -0.299344
vt 0.659210 -0.263716
vt 0.659210 -0.016551
vt 0.623583 0.019077
vt 0.376417 0.019077
vt 0.340790 -0.016551
vt -0.463553 1.535959
vt -0.535959 1.463553
vt -0.535959 -0.463553
vt -0.463553 -0.535959
vt -0.577114 -0.303681
vt -0.645102 -0.354410
vt 1.577114 -0.303681
vt 1.645102 -0.354410
s 0
usemtl OutWood
f 1/1/1 2/2/1 3/3/1 4/4/1
f 5/5/2 6/6/2 7/7/2 8/8/2
f 9/9/3 10/10/3 11/11/3 12/12/3
f 13/6/4 14/5/4 15/8/4 16/7/4
f 17/10/5 18/9/5 19/12/5 20/11/5
f 21/5/6 22/6/6 23/7/6 24/8/6
f 25/6/7 26/5/7 27/8/7 28/7/7
f 29/5/8 30/6/8 31/7/8 32/8/8
f 81/10/9 82/9/9 83/12/9 84/11/9
f 85/9/10 86/10/10 87/11/10 88/12/10
f 89/13/11 90/14/11 91/15/11 92/16/11
f 93/10/12 94/9/12 95/12/12 96/11/12
f 97/1/13 98/2/13 99/3/13 100/4/13
f 101/2/14 102/1/14 103/4/14 104/3/14
f 105/6/15 106/5/15 107/8/15 108/7/15
f 109/2/16 110/1/16 111/4/16 112/3/16
f 113/9/17 114/10/17 115/11/17 116/12/17
f 117/14/18 118/13/18 119/16/18 120/15/18
f 121/13/19 122/14/19 123/15/19 124/16/19
f 125/2/20 126/1/20 127/4/20 128/3/20
f 129/1/21 130/2/21 131/3/21 132/4/21
f 133/14/22 134/13/22 135/16/22 136/15/22
f 137/14/23 138/13/23 139/16/23 140/15/23
f 141/13/24 142/14/24 143/15/24 144/16/24
f 72/17/25 71/18/25 54/19/25 53/20/25
f 59/21/26 106/5/26 105/6/26 60/22/26
f 74/23/27 73/24/27 36/21/27 35/22/27
f 61/18/28 98/2/28 97/1/28 62/17/28
f 41/19/29 10/10/29 9/9/29 42/20/29
f 66/24/30 65/23/30 34/22/30 33/21/30
f 77/24/31 142/14/31 141/13/31 78/23/31
f 70/18/32 69/17/32 64/20/32 63/19/32
f 17/10/33 44/19/33 43/20/33 18/9/33
f 52/23/34 51/24/34 38/21/34 37/22/34
f 5/5/35 50/21/35 49/22/35 6/6/35
f 129/25/36 72/26/36 53/27/36 94/28/36
f 1/1/37 46/17/37 45/18/37 2/2/37
f 89/29/38 52/30/38 37/31/38 30/32/38
f 68/18/39 67/17/39 56/20/39 55/19/39
f 75/23/40 138/13/40 137/14/40 76/24/40
f 109/33/41 68/34/41 55/35/41 86/36/41
f 39/21/42 14/5/42 13/6/42 40/22/42
f 125/37/43 70/38/43 63/39/43 114/40/43
f 79/23/44 134/13/44 133/14/44 80/24/44
f 121/41/45 74/42/45 35/43/45 22/44/45
f 47/20/46 82/9/46 81/10/46 48/19/46
f 117/45/47 66/46/47 33/47/47 26/48/47
f 57/17/48 102/1/48 101/2/48 58/18/48
f 7/49/45 6/50/45 93/37/45 96/51/45 91/15/45 90/14/45 1/1/45 4/4/45
f 4/52/49 3/53/49 84/54/49 83/55/49 8/8/49 7/7/49
f 45/30/50 38/56/50 29/57/50 2/29/50
f 51/30/51 46/56/51 1/57/51 90/29/51
f 23/7/52 22/6/52 81/10/52 84/11/52 3/58/52 2/29/52 29/57/52 32/52/52
f 83/55/53 82/48/53 121/41/53 124/59/53 131/3/53 130/2/53 5/5/53 8/8/53
f 49/60/54 54/38/54 93/37/54 6/50/54
f 71/34/55 50/27/55 5/28/55 130/33/55
f 31/7/41 30/6/41 17/10/41 20/11/41 11/58/41 10/29/41 25/57/41 28/52/41
f 16/61/56 15/62/56 12/63/56 11/58/56 20/11/56 19/12/56
f 15/61/38 14/28/38 109/33/38 112/64/38 119/16/38 118/13/38 9/9/38 12/12/38
f 41/30/57 34/56/57 25/57/57 10/29/57
f 65/42/58 42/47/58 9/48/58 118/41/58
f 87/11/59 86/10/59 13/6/59 16/7/59 19/52/59 18/57/59 89/29/59 92/58/59
f 39/27/60 68/34/60 109/33/60 14/28/60
f 55/34/61 40/27/61 13/28/61 86/33/61
f 43/56/62 52/30/62 89/29/62 18/57/62
f 37/56/63 44/30/63 17/29/63 30/57/63
f 99/59/43 98/41/43 21/48/43 24/55/43 27/8/43 26/5/43 101/2/43 104/3/43
f 28/54/64 27/55/64 24/8/64 23/7/64 32/52/64 31/53/64
f 35/47/65 48/42/65 81/41/65 22/48/65
f 61/42/66 36/47/66 21/48/66 98/41/66
f 33/47/67 58/42/67 101/41/67 26/48/67
f 47/47/68 74/42/68 121/41/68 82/48/68
f 53/27/69 78/34/69 141/33/69 94/28/69
f 75/34/70 56/27/70 85/28/70 138/33/70
f 57/56/71 66/30/71 117/29/71 102/57/71
f 63/38/72 60/60/72 105/50/72 114/37/72
f 59/60/73 70/38/73 125/37/73 106/50/73
f 73/42/74 62/47/74 97/48/74 122/41/74
f 79/38/75 64/60/75 113/50/75 134/37/75
f 67/27/76 76/34/76 137/33/76 110/28/76
f 69/60/77 80/38/77 133/37/77 126/50/77
f 77/38/78 72/60/78 129/50/78 142/37/78
f 139/64/79 138/33/79 85/28/79 88/61/79 95/12/79 94/9/79 141/13/79 144/16/79
f 92/63/80 91/58/80 96/11/80 95/12/80 88/61/80 87/62/80
f 104/59/81 103/113/81 108/114/81 107/49/81 100/4/81 99/3/81
f 123/15/47 122/14/47 97/1/47 100/4/47 107/49/47 106/50/47 125/37/47 128/51/47
f 103/52/82 102/57/82 117/29/82 120/58/82 115/11/82 114/10/82 105/6/82 108/7/82
f 116/115/83 115/51/83 120/15/83 119/16/83 112/64/83 111/116/83
f 111/4/36 110/1/36 137/14/36 140/15/36 135/51/36 134/37/36 113/50/36 116/49/36
f 128/114/84 127/49/84 132/4/84 131/3/84 124/59/84 123/113/84
f 143/51/85 142/37/85 129/50/85 132/49/85 127/4/85 126/1/85 133/14/85 136/15/85
f 140/64/86 139/116/86 144/115/86 143/51/86 136/15/86 135/16/86
f 71/34/52 130/33/52 93/36/52 54/35/52
f 130/2/30 129/1/30 94/9/30 93/10/30
f 69/117/79 126/118/79 113/50/79 64/60/79
f 126/1/34 125/2/34 114/10/34 113/9/34
f 65/42/59 118/41/59 25/44/59 34/43/59
f 118/13/25 117/14/25 26/5/25 25/6/25
f 51/119/53 90/120/53 29/57/53 38/56/53
f 90/14/32 89/13/32 30/6/32 29/5/32
f 73/46/82 122/45/82 21/48/82 36/47/82
f 122/14/39 121/13/39 22/6/39 21/5/39
f 67/26/85 110/25/85 85/28/85 56/27/85
f 110/1/27 109/2/27 86/10/27 85/9/27
usemtl InWood
f 65/65/25 66/66/25 57/67/25 58/68/25 33/69/25 34/70/25 41/71/25 42/72/25
f 35/73/39 36/74/39 61/75/39 62/76/39 73/77/39 74/78/39 47/79/39 48/80/39
f 43/81/32 44/82/32 37/83/32 38/84/32 45/85/32 46/86/32 51/87/32 52/88/32
f 67/89/27 68/90/27 39/91/27 40/92/27 55/93/27 56/94/27 75/95/27 76/96/27
f 53/97/30 54/98/30 49/99/30 50/100/30 71/101/30 72/102/30 77/103/30 78/104/30
f 79/105/34 80/106/34 69/107/34 70/108/34 59/109/34 60/110/34 63/111/34 64/112/34
